<?xml version="1.0" encoding="UTF-8" standalone="no"?>
<!-- Created with Inkscape (http://www.inkscape.org/) -->

<svg
   width="30mm"
   height="30mm"
   viewBox="0 0 30 30"
   version="1.1"
   id="svg5"
   inkscape:version="1.1 (c68e22c387, 2021-05-23)"
   sodipodi:docname="magic.svg"
   inkscape:export-filename="C:\Users\17342\Downloads\magic.png"
   inkscape:export-xdpi="96"
   inkscape:export-ydpi="96"
   xmlns:inkscape="http://www.inkscape.org/namespaces/inkscape"
   xmlns:sodipodi="http://sodipodi.sourceforge.net/DTD/sodipodi-0.dtd"
   xmlns="http://www.w3.org/2000/svg"
   xmlns:svg="http://www.w3.org/2000/svg">
  <sodipodi:namedview
     id="namedview7"
     pagecolor="#ffffff"
     bordercolor="#666666"
     borderopacity="1.0"
     inkscape:pageshadow="2"
     inkscape:pageopacity="0.0"
     inkscape:pagecheckerboard="0"
     inkscape:document-units="mm"
     showgrid="false"
     width="30mm"
     inkscape:zoom="4.9794262"
     inkscape:cx="50.708654"
     inkscape:cy="50.206588"
     inkscape:window-width="1282"
     inkscape:window-height="1030"
     inkscape:window-x="15"
     inkscape:window-y="0"
     inkscape:window-maximized="0"
     inkscape:current-layer="layer1" />
  <defs
     id="defs2" />
  <g
     inkscape:label="Layer 1"
     inkscape:groupmode="layer"
     id="layer1">
    <path
       style="fill:none;stroke:#dcd7cf;stroke-width:0.423162px;stroke-linecap:butt;stroke-linejoin:miter;stroke-opacity:1"
       d="M 1.4461962,20.375818 C 15.311305,32.169443 14.858861,-2.527592 28.761125,9.9285519"
       id="path1546"
       sodipodi:nodetypes="cc" />
    <path
       style="fill:none;stroke:#dcd7cf;stroke-width:0.423162px;stroke-linecap:butt;stroke-linejoin:miter;stroke-opacity:1"
       d="M 1.4461962,9.6714949 C 15.311305,-2.1221292 14.858861,32.574906 28.761125,20.118763"
       id="path2707"
       sodipodi:nodetypes="cc" />
    <path
       id="path2731"
       style="fill:none;stroke:#dcd7cf;stroke-width:0.423829;stroke-opacity:1"
       d="M 6.0627028,15.192861 A 2.9253944,3.2293921 0 0 1 3.1373089,18.422253 2.9253944,3.2293921 0 0 1 0.21191449,15.192861 2.9253944,3.2293921 0 0 1 3.1373089,11.963469 2.9253944,3.2293921 0 0 1 6.0627028,15.192861 Z" />
    <path
       id="circle2857"
       style="fill:none;stroke:#dcd7cf;stroke-width:0.423829;stroke-opacity:1"
       d="m 29.788085,15.192861 a 2.9253944,3.2293921 0 0 1 -2.925396,3.229392 2.9253944,3.2293921 0 0 1 -2.925393,-3.229392 2.9253944,3.2293921 0 0 1 2.925393,-3.229392 2.9253944,3.2293921 0 0 1 2.925396,3.229392 z" />
    <path
       id="path2881"
       style="fill:none;stroke:#dcd7cf;stroke-width:0.423827;stroke-opacity:1"
       d="M 21.969536,15.024668 A 7.0392308,7.7034464 0 0 1 14.930304,22.728112 7.0392308,7.7034464 0 0 1 7.8910751,15.024668 7.0392308,7.7034464 0 0 1 14.930304,7.32122 7.0392308,7.7034464 0 0 1 21.969536,15.024668 Z" />
    <path
       style="fill:none;stroke:#dcd7cf;stroke-width:0.423162px;stroke-linecap:butt;stroke-linejoin:miter;stroke-opacity:1"
       d="M 10.553012,0.18680636 C 8.1895881,1.4437236 7.8763568,4.0837341 8.4269186,7.3064729"
       id="path3000"
       sodipodi:nodetypes="cc" />
    <path
       style="fill:none;stroke:#dcd7cf;stroke-width:0.423162px;stroke-linecap:butt;stroke-linejoin:miter;stroke-opacity:1"
       d="M 19.475473,0.18680636 C 21.838898,1.4437236 22.152129,4.0837341 21.601567,7.3064729"
       id="path3135"
       sodipodi:nodetypes="cc" />
    <path
       style="fill:none;stroke:#dcd7cf;stroke-width:0.423162px;stroke-linecap:butt;stroke-linejoin:miter;stroke-opacity:1"
       d="M 10.553012,29.795986 C 8.1895881,28.539068 7.8763568,25.899057 8.4269186,22.676315"
       id="path3293"
       sodipodi:nodetypes="cc" />
    <path
       style="fill:none;stroke:#dcd7cf;stroke-width:0.423162px;stroke-linecap:butt;stroke-linejoin:miter;stroke-opacity:1"
       d="m 19.475473,29.795986 c 2.363425,-1.256918 2.676656,-3.896929 2.126094,-7.119671"
       id="path3295"
       sodipodi:nodetypes="cc" />
    <path
       style="fill:none;stroke:#dcd7cf;stroke-width:0.423162px;stroke-linecap:butt;stroke-linejoin:miter;stroke-opacity:1"
       d="m 9.4756643,15.058305 11.0329977,0.03062"
       id="path3330"
       sodipodi:nodetypes="cc" />
    <path
       style="fill:none;stroke:#dcd7cf;stroke-width:0.423162px;stroke-linecap:butt;stroke-linejoin:miter;stroke-opacity:1"
       d="m 11.608764,3.6881543 6.888689,0.032635"
       id="path3334"
       sodipodi:nodetypes="cc" />
    <path
       style="fill:none;stroke:#dcd7cf;stroke-width:0.423162px;stroke-linecap:butt;stroke-linejoin:miter;stroke-opacity:1"
       d="m 11.547819,26.630295 6.912722,0.0041"
       id="path3336"
       sodipodi:nodetypes="cc" />
  </g>
</svg>
