<?xml version="1.0" encoding="UTF-8" standalone="no"?>
<svg class="logo" display="block" width="20mm" height="20mm" viewBox="0 0 90 120" version="1.1" id="arysia"
            sodipodi:docname="drawing.svg" inkscape:version="1.1 (c68e22c387, 2021-05-23)"
            xmlns:inkscape="http://www.inkscape.org/namespaces/inkscape"
            xmlns:sodipodi="http://sodipodi.sourceforge.net/DTD/sodipodi-0.dtd" xmlns="http://www.w3.org/2000/svg"
            xmlns:svg="http://www.w3.org/2000/svg">
            <sodipodi:namedview id="namedview7" pagecolor="#ffffff" bordercolor="#666666" borderopacity="1.0"
               inkscape:pageshadow="2" inkscape:pageopacity="0.0" inkscape:pagecheckerboard="0"
               inkscape:document-units="mm" showgrid="false" inkscape:zoom="0.72337262" inkscape:cx="125.10841"
               inkscape:cy="431.31298" inkscape:window-width="1482" inkscape:window-height="1030"
               inkscape:window-x="213" inkscape:window-y="39" inkscape:window-maximized="0"
               inkscape:current-layer="layer1" />
            <defs id="defs2" />


            <g inkscape:label="Layer 1" inkscape:groupmode="layer" id="layer1">
               <path class="largeCircle" id="path1356" style="opacity:1;fill:none;stroke:#dcd7cf;stroke-width:2"
                  d="M 101,51 A 50,50 0 0 1 51,101 50,50 0 0 1 1,51 50,50 0 0 1 51,1 50,50 0 0 1 101,51 Z" />
               <path class="smCirLeft" id="path2305" style="opacity:1;fill:none;stroke:#dcd7cf;stroke-width:2"
                  d="m 61.859606,51 a 30,30 0 0 1 -30,30 A 30,30 0 0 1 1.8596058,51 30,30 0 0 1 31.859606,21 a 30,30 0 0 1 30,30 z" />
               <path class="smCirRight" id="path2411" style="opacity:1;fill:none;stroke:#dcd7cf;stroke-width:2"
                  d="M 101,51 A 30,30 0 0 1 71,81 30,30 0 0 1 41,51 30,30 0 0 1 71,21 30,30 0 0 1 101,51 Z" />
               <path class="rhombus" id="path2678" style="opacity:1;fill:none;stroke:#dcd7cf;stroke-width:1.95219"
                  d="M 51.190354,98.785475 27.281697,49.969694 51.190354,3.1463942 75.099011,49.969694 Z"
                  sodipodi:nodetypes="ccccc" />
               <path class="squiggle" stroke="#c9c2ba"
                  style="fill:none;stroke:#dcd7cf;stroke-width:2;stroke-linecap:butt;stroke-linejoin:miter;stroke-miterlimit:4;stroke-opacity:1"
                  d="M 0.99196834,51.806409 C 21.228121,39.307609 81.575053,63.684365 101,51.000001" id="path3804"
                  sodipodi:nodetypes="cc" />
               <path class="squiggle"
                  style="fill:none;stroke:#dcd7cf;stroke-width:2;stroke-linecap:butt;stroke-linejoin:miter;stroke-miterlimit:4;stroke-opacity:1"
                  d="M 101.02126,51.806409 C 80.785104,39.307609 20.438172,63.684365 1.0132246,51.000001" id="path4479"
                  sodipodi:nodetypes="cc" />
            </g>
         </svg>