<?xml version="1.0" encoding="UTF-8" standalone="no"?>
<!-- Created with Inkscape (http://www.inkscape.org/) -->

<svg
   width="30mm"
   height="30mm"
   viewBox="0 0 30 30"
   version="1.1"
   id="svg5"
   inkscape:version="1.1 (c68e22c387, 2021-05-23)"
   sodipodi:docname="houses.svg"
   inkscape:export-filename="C:\Users\17342\Downloads\magic.png"
   inkscape:export-xdpi="96"
   inkscape:export-ydpi="96"
   xmlns:inkscape="http://www.inkscape.org/namespaces/inkscape"
   xmlns:sodipodi="http://sodipodi.sourceforge.net/DTD/sodipodi-0.dtd"
   xmlns="http://www.w3.org/2000/svg"
   xmlns:svg="http://www.w3.org/2000/svg">
  <sodipodi:namedview
     id="namedview7"
     pagecolor="#ffffff"
     bordercolor="#666666"
     borderopacity="1.0"
     inkscape:pageshadow="2"
     inkscape:pageopacity="0.0"
     inkscape:pagecheckerboard="0"
     inkscape:document-units="mm"
     showgrid="false"
     width="30mm"
     inkscape:zoom="3.5125763"
     inkscape:cx="44.838884"
     inkscape:cy="78.574806"
     inkscape:window-width="1482"
     inkscape:window-height="1030"
     inkscape:window-x="18"
     inkscape:window-y="8"
     inkscape:window-maximized="0"
     inkscape:current-layer="layer1"
     showguides="false" />
  <defs
     id="defs2">
    <linearGradient
       id="linearGradient1232"
       inkscape:swatch="solid">
      <stop
         style="stop-color:#dcd7cf;stop-opacity:1;"
         offset="0"
         id="stop1230" />
    </linearGradient>
  </defs>
  <g
     inkscape:label="Layer 1"
     inkscape:groupmode="layer"
     id="layer1">
    <path
       id="rect1228-7"
       style="fill:none;fill-rule:evenodd;stroke:#dcd7cf;stroke-width:0.423"
       d="M 8.0272865,7.9741516 19.383263,11.080222 22.716607,22.663472 10.830326,19.557401 Z"
       sodipodi:nodetypes="ccccc" />
    <path
       style="fill:none;stroke:#dcd7cf;stroke-width:0.423;stroke-linecap:butt;stroke-linejoin:miter;stroke-opacity:1;stroke-miterlimit:4;stroke-dasharray:none"
       d="M 8.0272865,7.9741516 22.716606,22.663471 v 0"
       id="path1787" />
    <path
       id="path3521"
       style="fill:none;fill-rule:evenodd;stroke:#dcd7cf;stroke-width:0.423"
       d="m 15.900164,9.5377865 a 7,7 0 0 1 -7.0000003,6.9999995 7,7 0 0 1 -7,-6.9999995 7,7 0 0 1 7,-7 7,7 0 0 1 7.0000003,7 z" />
    <path
       id="path3521-8"
       style="fill:none;fill-rule:evenodd;stroke:#dcd7cf;stroke-width:0.423"
       d="m 27.823139,21.334818 a 7,7 0 0 1 -7,7 7,7 0 0 1 -7,-7 7,7 0 0 1 7,-7 7,7 0 0 1 7,7 z" />
    <path
       id="rect3664"
       style="fill:none;fill-rule:evenodd;stroke:#dcd7cf;stroke-width:0.449201"
       d="M 2.8790954,21.165177 20.842368,3.201904 27.115414,9.4749495 9.1521409,27.438222 Z" />
  </g>
</svg>
