<?xml version="1.0" encoding="UTF-8" standalone="no"?>
<!-- Created with Inkscape (http://www.inkscape.org/) -->

<svg
   width="23.921221"
   height="22.250706"
   viewBox="0 0 6.3291559 5.8871655"
   version="1.1"
   id="svg3381"
   inkscape:version="1.1 (c68e22c387, 2021-05-23)"
   sodipodi:docname="nations.svg"
   inkscape:export-filename="C:\Users\17342\Desktop\cornerofrandom\animations\arysia\path1974.png"
   inkscape:export-xdpi="4013.1733"
   inkscape:export-ydpi="4013.1733"
   xmlns:inkscape="http://www.inkscape.org/namespaces/inkscape"
   xmlns:sodipodi="http://sodipodi.sourceforge.net/DTD/sodipodi-0.dtd"
   xmlns="http://www.w3.org/2000/svg"
   xmlns:svg="http://www.w3.org/2000/svg">
  <sodipodi:namedview
     id="namedview3383"
     pagecolor="#ffffff"
     bordercolor="#666666"
     borderopacity="1.0"
     inkscape:pageshadow="2"
     inkscape:pageopacity="0.0"
     inkscape:pagecheckerboard="0"
     inkscape:document-units="mm"
     showgrid="false"
     showguides="false"
     width="30mm"
     inkscape:zoom="11.284816"
     inkscape:cx="8.1082401"
     inkscape:cy="13.912499"
     inkscape:window-width="1482"
     inkscape:window-height="1030"
     inkscape:window-x="204"
     inkscape:window-y="56"
     inkscape:window-maximized="0"
     inkscape:current-layer="layer2"
     units="mm"
     fit-margin-top="0"
     fit-margin-left="0"
     fit-margin-right="0"
     fit-margin-bottom="0" />
  <defs
     id="defs3378" />

  <g
     inkscape:groupmode="layer"
     id="layer2"
     inkscape:label="Layer 2"
     transform="translate(-0.58521026,-0.97295656)">
    <path
       id="path1974"
       style="fill:none;fill-rule:evenodd;stroke:#dcd7cf;stroke-width:0.423162px;stroke-miterlimit:4;stroke-dasharray:none"
       inkscape:transform-center-x="-0.61016593"
       transform="matrix(0.17713914,0,0,0.19838196,1.7713774,2.3942901)"
       d="M 21.232042,7.6043839 10.898362,13.570537 0.56468201,19.53669 V 7.6043836 -4.3279221 L 10.898362,1.6382311 Z" />
    <path
       id="path1974-3"
       style="fill:none;fill-rule:evenodd;stroke:#dcd7cf;stroke-width:0.423162px;stroke-miterlimit:4;stroke-dasharray:none"
       inkscape:transform-center-x="0.6101667"
       transform="matrix(-0.17713914,0,0,0.19838196,5.7052191,2.3942901)"
       d="M 21.232042,7.6043839 10.898362,13.570537 0.56468201,19.53669 V 7.6043836 -4.3279221 L 10.898362,1.6382311 Z" />
    <path class="curve"
       style="fill:none;stroke:#dcd7cf;stroke-width:0.09191875;stroke-linecap:butt;stroke-linejoin:miter;stroke-miterlimit:4;stroke-dasharray:none;stroke-opacity:1"
       d="m 5.6427471,2.4129045 c 1.6392033,0.066918 1.5792441,2.9368529 0.017176,3.0320605"
       id="path2312"
       sodipodi:nodetypes="cc" />
    <path class="pointyCurve"
       style="fill:none;stroke:#dcd7cf;stroke-width:0.09191875;stroke-linecap:butt;stroke-linejoin:miter;stroke-miterlimit:4;stroke-dasharray:none;stroke-opacity:1"
       d="M 2.5852563,2.0115537 C 2.9351402,1.5523918 3.1751489,1.3809676 3.6881732,1.048482 4.2478571,1.3639148 4.5154447,1.5961535 4.863078,2.0236885"
       id="path3653"
       sodipodi:nodetypes="ccc" />
    <path class="curve"
       style="fill:none;stroke:#dcd7cf;stroke-width:0.09191875;stroke-linecap:butt;stroke-linejoin:miter;stroke-miterlimit:4;stroke-dasharray:none;stroke-opacity:1"
       d="M 1.8568295,2.4129045 C 0.21762627,2.4798226 0.27758547,5.3497574 1.8396532,5.444965"
       id="path5432"
       sodipodi:nodetypes="cc" />
    <path
       id="path5456"
       style="fill:none;fill-rule:evenodd;stroke:#dcd7cf;stroke-width:0.11191875;stroke-miterlimit:4;stroke-dasharray:none"
       d="m 3.9856364,1.8571672 a 0.26164904,0.30698007 0 0 1 -0.2616491,0.3069801 0.26164904,0.30698007 0 0 1 -0.261649,-0.3069801 0.26164904,0.30698007 0 0 1 0.261649,-0.30698 0.26164904,0.30698007 0 0 1 0.2616491,0.30698 z" />
    <path
       style="fill:none;stroke:#dcd7cf;stroke-width:0.08191875;stroke-linecap:butt;stroke-linejoin:miter;stroke-miterlimit:4;stroke-dasharray:none;stroke-opacity:1"
       d="m 2.6101752,5.8215254 c 0.349884,0.459162 0.5898926,0.6305862 1.102917,0.9630718 C 4.2727761,6.4691643 4.5403637,6.2369256 4.8879969,5.8093906"
       id="path5975"
       sodipodi:nodetypes="ccc" />
    <path
       id="ellipse5977"
       style="fill:none;fill-rule:evenodd;stroke:#dcd7cf;stroke-width:0.11191875;stroke-miterlimit:4;stroke-dasharray:none"
       transform="scale(1,-1)"
       d="m 4.0105557,-5.9759116 a 0.26164904,0.30698007 0 0 1 -0.2616491,0.3069801 0.26164904,0.30698007 0 0 1 -0.261649,-0.3069801 0.26164904,0.30698007 0 0 1 0.261649,-0.3069801 0.26164904,0.30698007 0 0 1 0.2616491,0.3069801 z" />
  </g>
</svg>
